<?xml version="1.0" encoding="UTF-8" standalone="no"?>
<!-- Created with Inkscape (http://www.inkscape.org/) -->

<svg
   width="210mm"
   height="297mm"
   viewBox="0 0 210 297"
   version="1.1"
   id="svg5"
   inkscape:version="1.1.1 (3bf5ae0d25, 2021-09-20)"
   sodipodi:docname="UncategorizedTransaction.svg"
   xmlns:inkscape="http://www.inkscape.org/namespaces/inkscape"
   xmlns:sodipodi="http://sodipodi.sourceforge.net/DTD/sodipodi-0.dtd"
   xmlns="http://www.w3.org/2000/svg"
   xmlns:svg="http://www.w3.org/2000/svg">
  <sodipodi:namedview
     id="namedview7"
     pagecolor="#ffffff"
     bordercolor="#666666"
     borderopacity="1.0"
     inkscape:pageshadow="2"
     inkscape:pageopacity="0.0"
     inkscape:pagecheckerboard="0"
     inkscape:document-units="mm"
     showgrid="false"
     inkscape:zoom="4.394379"
     inkscape:cx="260.67392"
     inkscape:cy="374.22808"
     inkscape:window-width="1920"
     inkscape:window-height="1057"
     inkscape:window-x="-8"
     inkscape:window-y="-8"
     inkscape:window-maximized="1"
     inkscape:current-layer="layer1" />
  <defs
     id="defs2" />
  <g
     inkscape:label="Layer 1"
     inkscape:groupmode="layer"
     id="layer1">
    <rect
       style="fill:none;fill-opacity:1;stroke:#c93e70;stroke-width:2.49853;stroke-linejoin:round;stroke-miterlimit:4;stroke-dasharray:none;stroke-opacity:1"
       id="rect846"
       width="39.001469"
       height="39.001469"
       x="51.249268"
       y="81.249268"
       inkscape:export-filename="D:\Programming-Projects\Raven\Design\TransactionIcons\UncategorizedTransaction.png"
       inkscape:export-xdpi="73.445786"
       inkscape:export-ydpi="73.445786" />
    <g
       id="g5833"
       transform="translate(0.76219559,-0.23780853)"
       inkscape:export-filename="D:\Programming-Projects\Raven\Design\TransactionIcons\UncategorizedTransaction.png"
       inkscape:export-xdpi="73.445786"
       inkscape:export-ydpi="73.445786">
      <path
         style="fill:none;stroke:#c93e70;stroke-width:3.79272;stroke-linecap:butt;stroke-linejoin:miter;stroke-miterlimit:4;stroke-dasharray:none;stroke-opacity:1"
         d="m 63.134231,92.571661 c -1.878623,-1.469772 -1.515887,-3.286327 0.367404,-4.598323 1.938603,-1.35053 4.064663,-1.746267 6.850046,-1.523394 1.689573,0.135192 3.047275,0.660908 4.249064,1.181073 0.934042,0.404272 1.87774,1.103141 2.379713,1.817628 0.589822,0.839521 1.040882,1.754175 1.11023,2.662573 0.06662,0.872157 -0.409982,2.366653 -0.790259,3.212997 -0.524754,1.167834 -1.707052,2.204486 -2.576072,3.251108 -0.495514,0.596801 -1.133926,1.091177 -1.692356,1.667667 -0.914752,0.74083 -0.459455,0.43865 -1.729046,1.72758 -0.860304,1.18919 -0.917456,1.29149 -1.236916,2.26027 -0.242804,0.73626 -0.266559,1.42105 -0.333527,2.6408 -0.0422,0.76771 0.368516,1.64571 0.368439,2.62812"
         id="path898"
         sodipodi:nodetypes="csssssssccssc" />
      <ellipse
         style="fill:#c93e70;fill-opacity:1;stroke:none;stroke-width:6.39716;stroke-miterlimit:4;stroke-dasharray:none;stroke-opacity:1"
         id="path5671"
         cx="70"
         cy="114.50009"
         rx="3"
         ry="3.0001004" />
    </g>
  </g>
</svg>
